<?xml version="1.0" standalone="no"?>
<!DOCTYPE svg PUBLIC "-//W3C//DTD SVG 20010904//EN"
 "http://www.w3.org/TR/2001/REC-SVG-20010904/DTD/svg10.dtd">
<svg version="1.0" xmlns="http://www.w3.org/2000/svg"
 width="700.000000pt" height="700.000000pt" viewBox="0 0 700.000000 700.000000"
 preserveAspectRatio="xMidYMid meet">
<metadata>
Created by potrace 1.14, written by Peter Selinger 2001-2017
</metadata>
<g transform="translate(0.000000,700.000000) scale(0.100000,-0.100000)"
fill="#000000" stroke="none">
<path d="M2525 6979 c-234 -63 -415 -261 -452 -494 -10 -61 -6 -179 7 -237 30
-133 129 -280 245 -365 51 -37 152 -82 224 -99 57 -13 232 -13 263 0 13 6 30
-12 77 -83 34 -50 60 -92 59 -92 -2 -1 -473 -2 -1048 -3 -944 -2 -1048 -4
-1080 -19 -50 -23 -74 -47 -100 -98 l-23 -44 0 -2640 c0 -2897 -4 -2675 59
-2740 64 -65 -100 -60 1904 -63 1331 -2 1836 0 1865 8 34 10 163 135 888 858
505 504 857 863 870 887 l21 40 0 1820 c0 1407 -3 1828 -12 1855 -16 44 -57
91 -102 116 -34 18 -79 19 -1389 21 -744 1 -1357 5 -1361 10 -4 4 -66 96 -137
203 l-130 195 30 50 c144 240 113 532 -78 744 -41 45 -147 117 -210 144 -113
47 -271 58 -390 26z"/>
</g>
</svg>
